<?xml version="1.0" encoding="utf-8"?>
<!-- Generator: Adobe Illustrator 17.0.0, SVG Export Plug-In . SVG Version: 6.00 Build 0)  -->
<!DOCTYPE svg PUBLIC "-//W3C//DTD SVG 1.1//EN" "http://www.w3.org/Graphics/SVG/1.1/DTD/svg11.dtd">
<svg version="1.1" id="Layer_1" xmlns="http://www.w3.org/2000/svg" xmlns:xlink="http://www.w3.org/1999/xlink" x="0px" y="0px"
	 width="107.025px" height="80px" viewBox="0 0 107.025 80" enable-background="new 0 0 107.025 80" xml:space="preserve">
<g>
	<path d="M95.794,14.683V8.861l-0.839-0.33c-0.293-0.115-7.136-2.772-16.262-2.772c-9.78,0-18.202,2.981-25.056,8.857
		C46.786,8.741,38.361,5.76,28.584,5.76c-9.128,0-15.972,2.657-16.257,2.772l-0.844,0.33v5.395C8.721,14.773,7,15.697,7,17.209
		c0,7.862,0,55.584,0,55.584h40.94c1.417,1.267,3.488,2.069,5.803,2.069c2.319,0,4.389-0.803,5.802-2.069h39.907
		c0,0,0-52.826,0-55.584C99.45,15.98,98.053,15.176,95.794,14.683z M53.196,68.408c-3.396-1.405-15.102-5.853-26.826-5.853
		c-4.632,0-8.737,0.711-12.23,2.114V10.7c2.038-0.683,7.599-2.289,14.444-2.289c9.002,0,16.738,2.722,23.055,8.028v32.219
		l1.557-1.717C53.196,46.941,53.196,68.408,53.196,68.408z M93.136,64.683c-3.752-1.51-8.063-2.27-12.837-2.27
		c-11.719,0-22.869,4.49-26.224,5.969V46.937l1.565,1.719V16.439c6.314-5.309,14.05-8.028,23.052-8.028
		c6.823,0,12.399,1.609,14.443,2.289v53.983H93.136z"/>
	<path d="M19.39,17.799l0.549,2.077c13.824-3.666,26.261,3.119,26.387,3.188l1.045-1.879C46.84,20.889,34.066,13.908,19.39,17.799z"
		/>
	<path d="M19.39,23.879l0.549,2.078c13.824-3.671,26.261,3.118,26.387,3.184l1.045-1.873C46.84,26.967,34.066,19.989,19.39,23.879z"
		/>
	<path d="M19.39,29.595l0.549,2.078c13.824-3.665,26.261,3.118,26.387,3.187l1.045-1.876C46.84,32.686,34.066,25.707,19.39,29.595z"
		/>
	<path d="M19.39,35.859l0.549,2.077c13.824-3.667,26.261,3.122,26.387,3.188l1.045-1.874C46.84,38.946,34.066,31.965,19.39,35.859z"
		/>
	<path d="M19.39,41.66l0.549,2.078c13.824-3.662,26.261,3.12,26.387,3.193l1.045-1.883C46.84,44.754,34.066,37.775,19.39,41.66z"/>
	<path d="M19.39,47.622l0.549,2.079c13.824-3.668,26.261,3.118,26.387,3.186l1.045-1.875C46.84,50.709,34.066,43.736,19.39,47.622z"
		/>
	<path d="M19.39,53.602l0.549,2.075c13.824-3.667,26.261,3.119,26.387,3.188l1.045-1.871C46.84,56.689,34.066,49.709,19.39,53.602z"
		/>
	<path d="M61.586,23.221c0.126-0.069,12.562-6.852,26.385-3.187l0.552-2.078c-14.68-3.888-27.448,3.094-27.981,3.392L61.586,23.221z
		"/>
	<path d="M60.541,27.428l1.045,1.877c0.126-0.068,12.561-6.855,26.384-3.185l0.552-2.081C73.842,20.149,61.074,27.127,60.541,27.428
		z"/>
	<path d="M60.541,33.141l1.045,1.877c0.126-0.069,12.562-6.855,26.385-3.191l0.552-2.078C73.842,25.865,61.074,32.843,60.541,33.141
		z"/>
	<path d="M60.541,39.408l1.045,1.873c0.126-0.065,12.562-6.851,26.385-3.185l0.552-2.077C73.842,32.126,61.074,39.107,60.541,39.408
		z"/>
	<path d="M60.541,45.209l1.045,1.88c0.126-0.069,12.562-6.852,26.385-3.187l0.552-2.082C73.842,37.936,61.074,44.912,60.541,45.209z
		"/>
	<path d="M60.541,51.174l1.045,1.872c0.126-0.065,12.562-6.849,26.385-3.186l0.552-2.072C73.842,43.896,61.074,50.874,60.541,51.174
		z"/>
	<path d="M60.541,57.148l1.045,1.872c0.126-0.063,12.562-6.854,26.385-3.186l0.552-2.076C73.842,49.87,61.074,56.85,60.541,57.148z"
		/>
</g>
</svg>
