<?xml version="1.0" encoding="utf-8"?>
<!-- Generator: Adobe Illustrator 16.0.0, SVG Export Plug-In . SVG Version: 6.00 Build 0)  -->
<!DOCTYPE svg PUBLIC "-//W3C//DTD SVG 1.1//EN" "http://www.w3.org/Graphics/SVG/1.1/DTD/svg11.dtd">
<svg version="1.1" xmlns="http://www.w3.org/2000/svg" xmlns:xlink="http://www.w3.org/1999/xlink" x="0px" y="0px" width="100px"
	 height="100px" viewBox="0 0 100 100" enable-background="new 0 0 100 100" xml:space="preserve">
<g id="Layer_2">
</g>
<g id="Layer_1">
	<g>
		<g>
			<path fill="#231F20" d="M50.651,90.617c-0.174-0.172-0.174-0.635-0.174-1.783c0-1.15,0.349-3.91,0.754-5.353
				c0.404-1.433,0.522-4.427,0.292-7.704c-0.235-3.28-0.351-10.587-0.351-13.112c0-2.535-0.638-7.193-0.988-6.271
				c-1.448,3.679-2.726,9.606-2.783,11.501c-0.058,1.899-0.289,4.547-0.468,6.217c-0.174,1.666-0.867,13.34-0.867,14.78
				c0,1.437-2.613,5.235-2.962,5.582c-0.35,0.343,0,1.783,0.579,3.391c0.582,1.609-1.276,1.728-2.436,1.786
				c-1.163,0.057-2.901-0.232-3.716-0.98c-0.813-0.745,0.756-3.28,1.045-4.259c0.291-0.974-0.23-1.377-1.045-4.429
				c-0.813-3.048-0.407-6.958-0.407-9.085c0-2.129,0.232-4.603,0.988-7.939c0.755-3.338,0.925-6.04,1.044-9.031
				c0.115-2.987,0.697-11.848,0.463-11.905c-0.23-0.058-1.102-0.751-1.74-2.36c-0.636-1.609-0.698-3.449-0.698-3.449
				s-0.347-0.347-0.58-0.402c-0.235-0.061-0.639-1.266-0.871-1.841c-0.228-0.578-0.351-0.864-0.351-1.67
				c0-0.804-0.809-2.242-1.274-2.875c-0.463-0.633-0.463-1.496-0.463-2.304c0-0.804-0.812-2.47-0.93-3.389
				c-0.116-0.923,0.233-2.591,0.466-3.451c0.232-0.864,1.16-3.798,1.392-4.43c0.234-0.638,0.291-2.015,0.987-2.765
				c0.696-0.746,0.115-1.091,0.115-1.952c0-0.867,0.693-2.876,1.277-4.433c0.581-1.552,1.161-1.838,3.6-2.298
				c2.436-0.461,4.295-0.979,5.224-1.554c0.93-0.575,1.045-0.058,1.627-0.979c0.579-0.919-0.642-1.841-0.642-2.588
				c0-0.75-0.869-2.359-1.101-2.991c-0.23-0.634-0.467-1.898,0.115-3.394c0.581-1.5,2.612-2.992,4.241-3.05
				c1.62-0.058,3.482,1.038,4.408,2.302c0.929,1.266,0.929,2.992,0.642,4.487c-0.293,1.496-0.93,3.279-1.336,3.911
				c-0.41,0.631,0.288,0.458,0.174,2.015c-0.117,1.55,0.638,1.207,2.203,2.184c1.569,0.979,5.457,2.418,6.272,3.222
				c0.812,0.804,0.695,4.429,0.812,7.306c0.114,2.874,0.58,6.5,0.926,11.042c0.351,4.544,0.698,12.255,0.755,13.345
				c0.062,1.091-0.926,0.979-0.926,0.979s0.521,0.92,0.637,2.127c0.118,1.209-1.047,1.556-1.047,1.556l0.122,0.804l0.056,1.55
				l1.452-0.401c0,0,0.754,1.727,1.567,4.889c0.812,3.165,1.102,8.057,1.102,8.057l-4.006,3.275l-1.044,0.52l-3.539,0.345
				c0,0-0.292,4.484-0.292,8.799c0,4.313-1.278,4.313-1.973,5.406c-0.697,1.096-0.525,1.439-0.525,2.762
				c0,1.327,1.046,1.67,2.206,2.706c1.159,1.033,1.104,1.321,1.683,2.355c0.585,1.039-0.057,1.039-0.869,1.267
				c-0.813,0.231-2.322,0.114-3.948-0.288c-1.624-0.401-1.566-1.093-1.741-1.779c-0.171-0.692-1.278-0.115-1.278-0.115l-1.915-0.691
				C50.593,93.782,50.826,90.792,50.651,90.617z M39.037,35.109c0,0,0.292-1.321,0.408-2.761c0.118-1.437,0.234-3.393,0.118-4.028
				c-0.118-0.633-0.756,0.174-1.045,1.497c-0.29,1.322,0.174,3.683,0.232,4.544C38.807,35.222,39.037,35.859,39.037,35.109z
				 M60.462,57.772l0.696-0.347c0,0-0.058-2.703,0.059-3.274c0.116-0.576-0.462-0.062-0.521,0.516
				C60.637,55.243,60.462,57.772,60.462,57.772z M62.493,56.737l0.756-0.174c0,0-0.116-1.841-0.41-1.609
				C62.554,55.183,62.493,56.737,62.493,56.737z"/>
			<g>
				
					<linearGradient id="SVGID_1_" gradientUnits="userSpaceOnUse" x1="45.4814" y1="46.9497" x2="45.4814" y2="19.9199" gradientTransform="matrix(-0.9999 -0.0152 -0.0152 0.9999 96.11 -6.9432)">
					<stop  offset="0" style="stop-color:#FFFFFF"/>
					<stop  offset="0.6923" style="stop-color:#DEDEDE"/>
					<stop  offset="0.7363" style="stop-color:#DADADA"/>
					<stop  offset="0.7815" style="stop-color:#CDCDCD"/>
					<stop  offset="0.8273" style="stop-color:#B9B9B9"/>
					<stop  offset="0.8735" style="stop-color:#9C9C9C"/>
					<stop  offset="0.92" style="stop-color:#777777"/>
					<stop  offset="0.9661" style="stop-color:#4A4A4A"/>
					<stop  offset="1" style="stop-color:#242424"/>
				</linearGradient>
				<path fill-rule="evenodd" clip-rule="evenodd" fill="url(#SVGID_1_)" d="M56.646,39.132c0,0-7.463,0.762-13.438-0.671
					c0,0,2.792-5.069,2.885-8.01c0.1-2.942,0.404-5.673,0.425-7.121c0.026-1.448-0.202-3.772-0.025-5.005
					c0.174-1.243,0.219-4.08,0.226-4.544c0.008-0.463,0.12-0.977,0.12-0.977l0.316-0.361c0,0,1.477,2.247,2.621,2.418
					c0,0,0.359,0.314,1.254-0.242c1.943-1.052,2.902-2.28,2.902-2.28l0.205,0.314c0,0,0.027,1.601,0.023,1.911
					c-0.008,0.312,0.263,3.107,0.194,4.237c-0.07,1.138-0.755,4.847-0.588,7.741c0,0-0.167,4.074,0.425,6.148
					C54.191,32.689,54.126,33.617,56.646,39.132z"/>
				<path fill-rule="evenodd" clip-rule="evenodd" fill="#FFFFFF" d="M46.696,15.098l0.7,2.8c0.246-0.656,1.686-2.918,2.784-2.98
					c1.09-0.06,2.173,3.518,2.254,3.182c0.085-0.333,1.804-2.775,1.804-2.775l-0.102-2.672l-0.205-0.314c0,0-2.503,2.679-3.796,2.58
					c-1.482-0.142-2.846-1.956-2.981-2.476l-0.316,0.361L46.696,15.098z"/>
				<path fill-rule="evenodd" clip-rule="evenodd" fill="#222222" d="M49.319,17.345c0,0-0.603-1.404-0.364-1.67
					c0.236-0.271,0.91-0.842,1.226-0.756c0.312,0.084,0.888,0.44,0.962,0.709c0.076,0.272-0.373,1.274-0.376,1.663
					c-0.005,0.386,1.279,5.71,1.559,10.556c0,0,0.527,6.322,0.287,6.783c-0.241,0.46-1.956,2.604-2.227,2.444
					c-0.271-0.158-2.511-2.049-2.501-2.633c0.008-0.581,0.236-10.259,0.291-11.188C48.151,22.128,49.082,17.534,49.319,17.345z"/>
			</g>
		</g>
	</g>
</g>
</svg>
