<?xml version="1.0" encoding="utf-8"?>
<!-- Generator: Adobe Illustrator 16.0.0, SVG Export Plug-In . SVG Version: 6.00 Build 0)  -->
<!DOCTYPE svg PUBLIC "-//W3C//DTD SVG 1.1//EN" "http://www.w3.org/Graphics/SVG/1.1/DTD/svg11.dtd">
<svg version="1.1" id="Layer_1" xmlns="http://www.w3.org/2000/svg" xmlns:xlink="http://www.w3.org/1999/xlink" x="0px" y="0px"
	 width="80px" height="80px" viewBox="-23.668 -24.112 80 80" enable-background="new -23.668 -24.112 80 80" xml:space="preserve">
<g>
	<path d="M11.631-24c4.489,0,8.123,3.636,8.123,8.121c0,4.486-3.634,8.122-8.123,8.122c-4.484,0-8.121-3.636-8.121-8.122
		C3.51-20.364,7.147-24,11.631-24z"/>
	<path d="M15.528-6.87l-1.924,0.804c-0.396-0.678-1.121-1.141-1.962-1.141c-0.843,0-1.564,0.463-1.958,1.125L7.748-6.904
		c-0.274-0.12-0.624-0.09-0.875,0.073c-0.262,0.172-0.437,0.46-0.437,0.765v2.399c0,0.287,0.165,0.563,0.396,0.728
		c0.233,0.177,0.543,0.225,0.82,0.146c0.752-0.233,1.694-0.516,2.228-0.682c0.421,0.508,1.051,0.835,1.756,0.835
		c0.684,0,1.298-0.309,1.717-0.782c0.551,0.157,1.498,0.452,2.272,0.677c0.266,0.081,0.583,0.033,0.809-0.145
		c0.237-0.168,0.386-0.443,0.386-0.728V-6.03c0-0.313-0.168-0.593-0.418-0.761C16.144-6.958,15.804-6.991,15.528-6.87z"/>
	<path d="M10.736,45.191h26.053v-15.67h-6.825c0.003-0.094,0.006-0.178,0.006-0.26c0-2.275-1.212-4.297-3.029-5.398
		c0.317-0.504,0.506-1.107,0.509-1.75c0.053-16.875-5.427-22.896-9.229-25.51l-6.59,8.832L5.206-3.396
		c-3.807,2.613-9.382,9.258-9.33,26.139c0.005,1.816,1.474,3.35,3.297,3.35h0.002c1.819,0,3.333-1.553,3.327-3.367
		c-0.014-4.92,0.107-8.78,1.282-11.717v10.624c0,1.531,0.489,2.965,1.079,4.191v26.66c0,1.818,1.535,3.293,3.351,3.293
		c1.821,0,3.359-1.475,3.359-3.293l0.277-0.025c0,1.824,1.513,3.318,3.327,3.318c1.817,0,3.401-1.523,3.401-3.344v-4.693H8.098
		V26.873h7.882c0.595-1.916,1.912-3.508,3.603-4.523c0.094-0.426,0.016-11.414,0.016-11.414c0.934,2.421,1.343,6.224,1.323,11.144
		c0,0.482,0.094,0.939,0.274,1.354c-2.252,0.963-3.837,3.221-3.837,5.822c0,0.074,0.001,0.16,0.004,0.26h-6.623L10.736,45.191
		L10.736,45.191z M19.97,29.268c0-2.033,1.657-3.699,3.692-3.699c2.037,0,3.699,1.674,3.699,3.703c0,0.078-0.006,0.16-0.009,0.258
		H19.98C19.971,29.428,19.97,29.346,19.97,29.268z"/>
</g>
</svg>
