<?xml version="1.0" encoding="utf-8"?>
<!-- Generator: Adobe Illustrator 16.0.0, SVG Export Plug-In . SVG Version: 6.00 Build 0)  -->
<!DOCTYPE svg PUBLIC "-//W3C//DTD SVG 1.1//EN" "http://www.w3.org/Graphics/SVG/1.1/DTD/svg11.dtd">
<svg version="1.1" id="Layer_1" xmlns="http://www.w3.org/2000/svg" xmlns:xlink="http://www.w3.org/1999/xlink" x="0px" y="0px"
	 width="80px" height="80px" viewBox="360 360 80 80" enable-background="new 360 360 80 80" xml:space="preserve">
<g>
	<path stroke="#000000" stroke-miterlimit="10" d="M399.745,377.665c0.01,0,0.02,0,0.04,0c0.011,0,0.021,0,0.04,0
		c4.784,0,8.658-3.874,8.658-8.658c0-0.758-0.102-1.496-0.283-2.194c-0.961-3.732-4.35-6.493-8.384-6.493c-0.01,0-0.02,0-0.04,0
		c-0.011,0-0.021,0-0.04,0c-4.784-0.01-8.658,3.874-8.658,8.646c0,0.759,0.102,1.497,0.283,2.195
		C392.321,374.904,395.708,377.665,399.745,377.665z"/>
	<path d="M392.827,381.305h-2.165c-3.287,0-5.947,2.66-5.947,5.946v17.324c0,3.287,2.66,5.947,5.947,5.947h0.758v25.172
		c0,2.316,1.881,4.197,4.197,4.197c2.153,0,3.934-1.628,4.167-3.731c0.232,2.094,2.012,3.731,4.167,3.731
		c2.316,0,4.196-1.881,4.196-4.197v-25.192h0.759c3.287,0,5.946-2.659,5.946-5.947v-17.324c-0.02-3.276-2.68-5.936-5.956-5.936
		h-2.164"/>
</g>
<path stroke="#000000" stroke-miterlimit="10" d="M422.206,377.665c0.01,0,0.021,0,0.04,0c0.01,0,0.021,0,0.041,0
	c4.784,0,8.656-3.874,8.656-8.658c0-0.758-0.101-1.496-0.283-2.194c-0.96-3.732-4.349-6.493-8.384-6.493c-0.01,0-0.021,0-0.04,0
	c-0.01,0-0.021,0-0.041,0c-4.783,0-8.656,3.874-8.656,8.657c0,0.759,0.1,1.498,0.283,2.194
	C414.783,374.904,418.171,377.665,422.206,377.665z"/>
<path d="M417.686,392.106v12.469c0,2.994-1.508,5.644-3.804,7.222v23.897c0,2.316,1.883,4.197,4.197,4.197
	c2.155,0,3.935-1.628,4.167-3.731c0.233,2.094,2.013,3.731,4.167,3.731c2.316,0,4.197-1.881,4.197-4.197v-25.192h0.759
	c3.287,0,5.946-2.659,5.946-5.947v-17.324c-0.021-3.276-2.681-5.936-5.956-5.936l-13.634,0.167"/>
<path stroke="#000000" stroke-miterlimit="10" d="M377.283,377.665c0.01,0,0.02,0,0.041,0c0.01,0,0.019,0,0.04,0
	c4.784,0,8.657-3.874,8.657-8.658c0-0.758-0.101-1.496-0.283-2.194c-0.961-3.732-4.349-6.493-8.385-6.493c-0.01,0-0.019,0-0.04,0
	c-0.01,0-0.02,0-0.04,0c-4.784,0-8.657,3.874-8.657,8.657c0,0.759,0.101,1.498,0.283,2.194
	C369.859,374.904,373.248,377.665,377.283,377.665z"/>
<path d="M381.798,381.331l-13.633-0.167c-3.276,0-5.936,2.66-5.957,5.937v17.325c0,3.286,2.66,5.945,5.946,5.945h0.759v25.193
	c0,2.315,1.881,4.197,4.197,4.197c2.154,0,3.934-1.64,4.167-3.732c0.232,2.104,2.012,3.732,4.167,3.732
	c2.316,0,4.197-1.882,4.197-4.197v-23.897c-2.295-1.578-3.803-4.228-3.803-7.222v-12.47"/>
</svg>
