<?xml version="1.0" encoding="utf-8"?>
<!-- Generator: Adobe Illustrator 16.0.0, SVG Export Plug-In . SVG Version: 6.00 Build 0)  -->
<!DOCTYPE svg PUBLIC "-//W3C//DTD SVG 1.1//EN" "http://www.w3.org/Graphics/SVG/1.1/DTD/svg11.dtd">
<svg version="1.1" id="Layer_1" xmlns="http://www.w3.org/2000/svg" xmlns:xlink="http://www.w3.org/1999/xlink" x="0px" y="0px"
	 width="100px" height="100px" viewBox="0 0 100 100" enable-background="new 0 0 100 100" xml:space="preserve">
<g id="whiteboard">
	<rect x="1" y="3" fill="none" stroke="#000000" stroke-width="2" stroke-miterlimit="10" width="68" height="48"/>
</g>
<g id="person">
	<path fill="#070009" d="M85.98,3.976c2.174,0.705,3.285,1.639,3.31,4.368c0.007,0.804-0.255,1.232-0.456,1.96
		c-0.251,0.913-0.578,1.868-0.816,2.679c0.039,1.2-0.062,2.116-0.021,3.316c1.242,0.194,1.042,1.55,1.891,2.075
		c0.754,0.264,1.508,0.527,2.26,0.793c1.414,0.673,2.604,1.652,3.662,2.687c0.385,0.325,0.772,0.65,1.157,0.975
		c0.534,1.059-0.532,6.489-0.731,7.63v2.074c0.125,2.104-0.278,4.352-0.67,6.165c-0.446,1.791-0.895,3.581-1.342,5.373
		c-0.762,1.389-1.343,1.162-1.343,2.609l-0.796,1.357c0.124,0.54,0.457,2.545,0.184,3.128c-0.312,0.241-3.541,2.259-3.541,2.259
		c-0.281,0.465,0.01,1.284-0.061,1.771c-0.172,1.221-0.225,1.369-0.486,3.035c-0.266,1.676,0.191,3.386,0,4.943
		c-0.082,1.547-0.164,3.094-0.244,4.639c0.162,0.615,0.238,2.03,0.184,2.748c-0.062,0.854-0.122,1.711-0.184,2.563
		c0.297,1.089,0.616,2.783,0.976,4.026v4.58c0.132,1.553,0.411,3.897,0.733,5.553c0.16,0.836-0.16,1.268,0.119,1.711
		c-0.873,0.216-1.994,3.286-2.867,3.967c0.494,1.568,2.629,3.551,1.646,5.372c-1.7,1.763-3.904,1.383-5.555-0.185
		c-0.08-0.549-0.162-1.1-0.242-1.647c-0.194-0.399-0.738-0.519-0.854-1.099c-0.232-1.149,0.394-2.75-0.062-3.784
		c-0.273-0.082-0.122,0.041-0.245-0.185c0.308-0.093,0.255-0.113,0.245-0.488c-0.391-1.045-0.827-2.244-0.428-3.603
		c0.183-0.403,0.367-0.812,0.551-1.22c0.113-0.495-0.344-0.746-0.43-1.1c-0.021-0.649-0.041-1.301-0.062-1.951
		c0.041-2.278,0.082-4.559,0.122-6.836c-0.266-2.811-0.527-5.616-0.792-8.426c-0.382-2.09-1.08-4.959-1.038-7.142
		c-0.223-0.914-0.447-1.832-0.672-2.746H79.02c-0.281,2.027-1.205,4.269-1.951,6.043c-0.266,0.526-0.528,1.058-0.793,1.587
		c-0.154,1.331-0.258,2.988-0.672,4.518c-0.258,0.945-0.793,2.449-0.916,3.418c0.039,0.914,0.08,1.832,0.121,2.748
		c0.104,1.529-0.188,3.281-0.428,4.882c-0.162,2.562-0.324,5.128-0.486,7.69c-0.264,0.447-0.881,0.723-1.281,1.037
		c0.169,0.68,0.268,1.463,0.426,1.954c0.277,0.289,0.191,2.72-0.229,3.011c-2.9,0.723-5.273,2.351-8.316,2.727
		c-1.723,0.363-3.204-0.089-3.661-0.551c-0.004-0.95-0.125-1.043,0.317-1.531c0.465-0.52,1.637-0.43,2.316-0.73
		c1.18-0.528,2.512-2.611,2.633-3.765c0.057-0.53-0.1-1.42-0.08-1.782c-0.102-0.613-0.201-1.225-0.305-1.835v-0.061
		c0.568-0.854,1.141-1.708,1.708-2.562c-0.06-1.285-0.12-2.566-0.182-3.848c0.284-2.922,0.194-6.166,0.854-8.666
		c0.021-1.936,0.041-3.867,0.062-5.798c0.559-3.505,0.651-7.453,1.099-10.685c0.163-1.604,0.325-3.215,0.488-4.82
		c-0.996-0.408-1.993-0.814-2.991-1.222c0.306-1.138,0.611-2.278,0.916-3.417c0.082-0.509,0.164-1.018,0.244-1.525
		c0.616-1.363,1.091-3.033,1.587-4.458c0.588-1.69,0.989-3.537,1.588-5.127v-0.67c0.694-1.409,1.909-5.349,1.282-7.631
		c-1.779-0.002-2.97-0.716-4.213-1.221c-1.759-0.71-3.54-1.026-5.128-1.709c-1.364-0.586-2.844-0.719-3.661-1.83
		c-0.817-1.11,0.233-2.787-0.427-3.724c-0.666-0.118-1.387-0.309-2.197-0.367c-0.104,0.307-0.087,0.295-0.49,0.306
		c-0.888-0.223-1.48-0.425-1.951-1.038c-0.014-0.962,0.986-2.59,1.709-2.87V14.34c-0.539-0.944-2.425-0.545-2.625-1.769
		c1.383-0.029,4.812,0.863,5.678,1.403c0.699,0.436,0.818,1.524,1.402,2.075c0.594,0.56,4.815,1.976,5.432,2.075
		c1.082,0.178,2.187,0.837,3.113,0.55c1.305,0.329,2.416,1.36,3.906,0.488c0.312-2.657,4.895-1.665,6.898-0.977
		c1.094-0.285,1.531-0.954,2.014-1.71c-0.53,0.124-0.739,0.265-1.27,0.054c-0.521-0.968-0.508-1.504-0.807-2.8
		c-0.162-0.407-0.24-1.065-0.402-1.472c0-0.651,0.041-1.134,0.041-1.786C79.18,9.85,78.8,8.198,79.038,7.143
		c0.327-0.815,0.765-1.248,1.088-2.062C81.486,3.43,84.132,3.375,85.98,3.976z"/>
</g>
</svg>
