<?xml version="1.0" encoding="utf-8"?>
<!-- Generator: Adobe Illustrator 16.0.0, SVG Export Plug-In . SVG Version: 6.00 Build 0)  -->
<!DOCTYPE svg PUBLIC "-//W3C//DTD SVG 1.1//EN" "http://www.w3.org/Graphics/SVG/1.1/DTD/svg11.dtd">
<svg version="1.1" xmlns="http://www.w3.org/2000/svg" xmlns:xlink="http://www.w3.org/1999/xlink" x="0px" y="0px" width="100px"
	 height="100px" viewBox="0 0 100 100" enable-background="new 0 0 100 100" xml:space="preserve">
<g id="Layer_1">
	<path d="M14.951,67.084c-0.781,0-0.376-25.383-0.363-28.483c0.018-4.824,0.039-9.639,0.039-14.458c0-2.792,1.496-3.702,4.283-3.676
		c4.272,0.035,8.552,0.156,12.83,0.156c11.54,0,23.079,0,34.613,0c3.361,0,6.716-0.011,10.067-0.034
		c2.571-0.012,5.134-0.032,7.702-0.05c2.829-0.017,2.248,4.432,2.248,6.19c0,12.377,0.055,24.75,0.01,37.129
		c-0.004,1.15,0.163,3.379-0.934,4.111c-2.021,1.34-6.267,0.473-8.662,0.482c-5.368,0.023-10.736,0.057-16.107,0.08
		c-2.214,0.004-1.722,4.629-1.043,6.305c1.524,1.529,8.548-1.398,9.45,0.809c0.812,3.328-0.896,3.229-3.94,3.229
		c-3.138,0-6.272-0.092-9.413-0.072c-4.907,0.033-9.812,0.084-14.719,0.045c-2.575-0.016-5.153-0.033-7.724-0.053
		c-3.076-0.02-2.439-3.717,0.246-3.717c1.475,0,6.023,0.672,7.351-0.076c1.368,0,0.808-5.426,0.808-6.385
		c-5.043,0.041-10.091,0.092-15.131,0.131C24.075,68.775,14.951,70.141,14.951,67.084 M18.585,64.9h63.91V24.824
		c-19.307,0-38.612,0-57.912,0c-0.342,0-5.999-0.029-5.999,0.025c0,3.627,0,7.252,0,10.881C18.585,45.447,18.585,55.174,18.585,64.9
		 M51.794,65.623h-2.583v1.383C50.533,67.006,52.373,67.59,51.794,65.623"/>
</g>
<g id="Layer_2">
</g>
</svg>
