<?xml version="1.0" encoding="utf-8"?>
<!-- Generator: Adobe Illustrator 16.0.0, SVG Export Plug-In . SVG Version: 6.00 Build 0)  -->
<!DOCTYPE svg PUBLIC "-//W3C//DTD SVG 1.1//EN" "http://www.w3.org/Graphics/SVG/1.1/DTD/svg11.dtd">
<svg version="1.1" id="Layer_1" xmlns="http://www.w3.org/2000/svg" xmlns:xlink="http://www.w3.org/1999/xlink" x="0px" y="0px"
	 width="80px" height="80px" viewBox="-24 -24 80 80" enable-background="new -24 -24 80 80" xml:space="preserve">
<g>
	<circle cx="34.702" cy="-13.341" r="9.659"/>
	<path d="M14.856,37.704v-2.382c0-1.93,0.94-3.794,2.485-4.982v-8.153H8.423c-3.447,0-6.217-2.725-6.217-6.165
		c0-0.562,0.254-1.028,0.254-1.548v-2.208h1.038c1.145-1.654,2.921-2.48,4.925-2.48h8.174c0.089-0.413,0.33-0.551,0.33-0.879
		v-22.125c0-1.847-1.705-3.455-3.548-3.455h-27.546c-1.846,0-3.218,1.608-3.218,3.455V8.909c0,1.846,1.372,3.36,3.218,3.36h11.252
		v2.891h-3.783c-1.66,0-3.006,1.239-3.006,3.308h-12.862c-0.855,0-1.433,0.479-1.433,1.342v3.5c0,0.853,0.575,1.358,1.433,1.358
		h4.353v31.418h36.377V41.934C18.168,41.934,14.856,41.233,14.856,37.704z M-9.307,7.306c-1.845,0-3.531-1.316-3.531-3.158V-8.453
		c0-1.847,1.687-3.258,3.531-3.258H8.606c1.847,0,3.36,1.411,3.36,3.258V4.148c0,1.842-1.51,3.158-3.36,3.158H-9.307z"/>
	<path d="M41.138-2.077H28.356c-7.834,0-8.327,7.842-8.327,7.842s-1.045,5.286-1.918,5.894c-0.265,0.186-0.58,0.321-0.945,0.321
		h-8.75c-2.071,0-3.748,1.648-3.748,3.721c0,2.071,1.677,3.72,3.748,3.72h8.75c1.359,0,2.558,0.002,2.72-0.034l-0.08,9.131h4.971
		V8.313c0-4.071,2.622-8.735,6.734-8.735h15.238C45.232-1.664,43.269-2.077,41.138-2.077z"/>
	<path d="M50.784,39.134c2.756,0,4.999-2.236,4.999-5V8.479c0-3.089-2.615-5.722-5.702-5.722H32.765
		c-3.087,0-5.502,2.633-5.502,5.722v22.805h-5.581c-2.148,0-3.927,1.647-3.927,3.794v1.409c0,1.461,1.184,2.643,2.644,2.643h11.827
		v3.308h-1.894c0,0-4.723,0.114-4.723,4.504v6.294c0,1.422,1.06,2.579,2.489,2.579c1.427,0,2.542-1.167,2.542-2.591l-0.039-5.823
		h8.65v5.835c0,1.422,1.256,2.579,2.686,2.579c1.429,0,2.688-1.157,2.688-2.579V46.94c0-4.773-5.069-4.504-5.069-4.504h-1.964
		v-3.303H50.784L50.784,39.134z"/>
</g>
</svg>
