<?xml version="1.0" encoding="utf-8"?>
<!-- Generator: Adobe Illustrator 16.0.0, SVG Export Plug-In . SVG Version: 6.00 Build 0)  -->
<!DOCTYPE svg PUBLIC "-//W3C//DTD SVG 1.1//EN" "http://www.w3.org/Graphics/SVG/1.1/DTD/svg11.dtd">
<svg version="1.1" id="person" xmlns="http://www.w3.org/2000/svg" xmlns:xlink="http://www.w3.org/1999/xlink" x="0px" y="0px"
	 width="100px" height="100px" viewBox="0 0 100 100" enable-background="new 0 0 100 100" xml:space="preserve">
<g>
	<path d="M36.422,96.796c0.087-0.02,0.145-0.061,0.168-0.17c0.023-0.112,0-0.293-0.019-0.391c-0.02-0.099-0.127-0.058-0.221-0.066
		c-0.093-0.009-0.071,0-0.074-0.04c-0.004-0.035-0.11-0.021-0.171-0.023c-0.061-0.007-0.037-0.028-0.052-0.193
		c-0.014-0.165-0.074-0.396-0.245-0.621c-0.169-0.228-0.351-0.308-0.638-0.389c-0.287-0.085-0.658-0.128-0.814-0.171
		c-0.153-0.043-0.196-0.043-0.451-0.165c-0.253-0.121-0.334-0.112-0.53-0.121c-0.199-0.011-0.363-0.029-0.521-0.082
		c-0.161-0.052-0.405-0.21-0.494-0.324c-0.089-0.112-0.115-0.142-0.184-0.233c-0.072-0.095-0.202-0.273-0.262-0.374
		c-0.061-0.095-0.025-0.071,0.061-0.088c0.084-0.013,0.066-0.064,0.066-0.126c0-0.063-0.107-0.171-0.238-0.275
		c-0.131-0.108-0.289-0.28-0.322-0.309c-0.031-0.023,0.033-0.069,0.045-0.169c0.014-0.099,0.037-0.339,0.032-0.619
		c-0.006-0.282-0.038-0.603-0.057-0.723c-0.02-0.119-0.011-0.162-0.075-0.188s-0.056-0.056-0.043-0.186
		c0.011-0.133,0.067-0.248,0.031-0.358c-0.038-0.113-0.038-0.144,0.044-0.246c0.082-0.099,0.074-0.199,0.163-0.411
		c0.086-0.213,0.213-0.47,0.325-0.647c0.114-0.175,0.314-0.661,0.458-1.203c0.15-0.627,0.032-1.298-0.019-1.843
		c-0.05-0.545-0.12-1.424-0.088-2.012c0.032-0.588-0.051-1.059-0.081-1.49c-0.031-0.432,0.011-2.44,0.026-2.84
		c0.012-0.403,0.036-1.586,0.023-2.093c-0.011-0.508-0.019-0.916,0.008-1.035c0.024-0.12,0.438-1.322,0.55-1.717
		c0.363-1.16,0.733-3.172,0.853-3.756c0.319-1.49,0.746-4.252,0.819-4.87c0.234-1.472,0.446-3.905,0.474-4.22
		c0.028-0.316,0.202-2.447,0.202-2.701s0.088-3.238,0.116-3.958c0.035-1.415,0.156-2.638,0.204-3.117
		c0.045-0.479,0.174-1.228,0.196-1.523c0-0.576,0.138-1.541,0.166-1.654c0.028-0.112,0.028-0.158,0.084-0.172
		c0.057-0.015,0.117-0.071,0.183-0.107c0.066-0.041,0.146-0.106,0.16-0.177c0.014-0.067,0.052-0.422,0.1-0.865
		c0.045-0.439,0.121-2.071,0.14-2.241c0.019-0.169,0.01-0.46,0.047-0.521c0.038-0.062,0.094-0.166,0.193-0.363
		c0.099-0.196,0.187-0.489,0.235-0.719c0.045-0.232-0.063-0.47-0.203-0.846c-0.141-0.375-0.169-0.587-0.169-1.076
		c0.02-0.573,0.115-0.806,0.169-0.959c0.05-0.155,0.113-0.233,0.206-0.434c0.217-0.417,0.311-0.929,0.439-1.278
		c0.093-0.261,0.08-0.423,0.045-0.511c-0.033-0.087-0.249-0.349-0.375-0.501c-0.127-0.157-0.169-0.242-0.216-0.327
		c-0.048-0.084-0.023-0.079-0.029-0.207c0-0.178,0.047-0.469,0.076-0.854c0.028-0.386,0.051-0.538,0.093-0.743
		c0.043-0.208,0.099-0.593,0.104-0.837c0.004-0.246,0.018-1.327,0.018-1.556c0-0.23-0.079-1.436-0.098-1.7
		c-0.021-0.262-0.115-0.878-0.14-1.171c0-0.371-0.193-2.453-0.258-3.23c-0.067-0.774-0.235-2.348-0.304-3.182
		c-0.069-0.924-0.5-2.348-0.652-2.831c-0.347-1.061-0.708-1.695-0.964-2.198c-0.51-0.947-0.766-1.228-1.028-1.531
		c-0.265-0.307-0.745-0.692-0.93-0.811c-0.188-0.116-0.662-0.488-0.829-0.575c-0.163-0.091-0.412-0.235-0.562-0.339
		c-0.152-0.104-0.123-0.124-0.26-0.198c-0.137-0.076-0.245-0.136-0.3-0.193c-0.057-0.057-0.166-0.129-0.277-0.201
		c-0.114-0.07-0.152-0.152-0.313-0.235c-0.158-0.084-0.234-0.127-0.436-0.283c-0.202-0.156-0.699-0.446-0.86-0.558
		c-0.161-0.114-0.296-0.172-0.399-0.264c-0.103-0.095-0.279-0.21-0.406-0.268c-0.125-0.057-0.511-0.283-0.582-0.313
		c-0.071-0.035-0.093-0.086-0.122-0.208c-0.028-0.123-0.207-0.883-0.295-1.231c-0.087-0.352-0.031-0.208-0.068-0.322
		c-0.039-0.113-0.039-0.139,0.011-0.305c0.051-0.171,0.082-0.466,0.158-0.554c0.076-0.088,0.27-0.388,0.375-0.563
		c0.089-0.101,0.27-0.98,0.333-1.214c0.063-0.239,0.057-0.228,0.125-0.228c0.158,0.006,0.377-0.161,0.465-0.284
		c0.088-0.116,0.176-0.363,0.332-0.669c0.156-0.306,0.219-0.651,0.321-0.881c0.099-0.232,0.111-0.435,0.106-0.542
		c-0.007-0.105-0.02-0.411-0.034-0.531c-0.011-0.118-0.08-0.394-0.343-0.349S28.713,5.89,28.722,5.75
		c0.008-0.142,0.113-0.913,0.13-1.666c0.02-0.751-0.082-1.985-0.553-2.189c-0.471-0.207-2.049-2.165-3.498-2.051
		c-2.201,0.02-3.493,1.152-3.965,1.489c-0.475,0.34-0.475,0.809-0.431,1.035c0.049,0.227,0.043,0.28-0.149,0.665
		c-0.193,0.38-0.093,1.454-0.081,1.701c0.014,0.244-0.007,0.164-0.195,0.167c-0.189,0.005-0.34,0.255-0.396,0.564
		c-0.058,0.309-0.081,0.83-0.039,1.296c0.042,0.468,0.212,0.956,0.372,1.171c0.159,0.218,0.306,0.313,0.446,0.392
		c0.141,0.08,0.118,0.074,0.118,0.187c0,0.114-0.02,0.292-0.028,0.593c-0.01,0.3-0.018,1.046-0.037,1.202
		c-0.02,0.157-0.053,0.108-0.108,0.166c-0.058,0.055-0.128,0.118-0.203,0.279c-0.075,0.167-0.395,0.789-0.452,0.905
		c-0.055,0.116-0.173,0.28-0.272,0.417c-0.099,0.136-0.155,0.298-0.183,0.357c-0.029,0.062-0.052,0.065-0.106,0.065
		c-0.12,0.008-0.17,0.031-0.371,0.121c-0.199,0.089-0.883,0.401-1.303,0.602c-0.42,0.199-0.979,0.483-1.191,0.592
		c-0.212,0.114-0.728,0.509-1.109,0.798c-0.384,0.29-1.161,0.865-1.298,0.973c-0.137,0.105-0.451,0.326-0.652,0.442
		c-0.201,0.119-0.864,0.673-0.959,0.746c-0.094,0.077-0.207,0.19-0.262,0.264c-0.056,0.077-0.113,0.103-0.222,0.156
		c-0.104,0.057-0.43,0.445-0.607,0.641c-0.175,0.193-0.487,0.69-0.62,1.042c-0.132,0.348-0.188,0.482-0.25,0.771
		c-0.062,0.287-0.057,0.763-0.039,0.933c0.019,0.169,0.039,0.312,0.019,0.395c-0.019,0.082,0.026,0.145,0.021,0.238
		c-0.006,0.094-0.132,0.477-0.207,0.777c-0.075,0.301-0.389,1.642-0.463,2.036c-0.077,0.395-0.356,1.601-0.415,1.87
		c-0.056,0.27-0.138,0.629-0.175,0.933c-0.038,0.3-0.145,1.265-0.189,1.472c-0.043,0.207-0.194,1.166-0.25,1.643
		c-0.056,0.476-0.193,1.455-0.25,1.881c-0.056,0.425,0,0.646-0.087,0.927c-0.088,0.281,0.037,0.917,0.099,1.441
		c0.062,0.526,0.239,1.029,0.409,1.373c0.168,0.346,0.502,0.86,0.55,0.942c0.051,0.079,0.101,0.261,0.171,0.576
		c0.067,0.312,0.363,1.528,0.401,1.673c0.036,0.145,0.018,0.232-0.018,0.563c-0.039,0.333-0.089,0.618-0.114,0.79
		c-0.025,0.17-0.077,0.249-0.082,0.337c-0.005,0.087,0.107,0.78,0.145,1.16c0.037,0.382,0.176,0.745,0.232,1.159
		c0.058,0.415,0.239,0.903,0.312,1.191c0.077,0.287,0.14,0.318,0.175,0.826c0.039,0.512,0.188,0.937,0.221,1.138
		c0.032,0.197,0.125,0.42,0.112,0.545c-0.011,0.124,0.082,0.175,0.214,0.243c0.131,0.067,0.351,0.051,0.52,0.119
		c0.167,0.069,0.414,0.062,0.664,0.062c0.251,0,0.357-0.073,0.446-0.129c0.087-0.057,0.119-0.071,0.139-0.015
		c0.017,0.057,0.017,0.228,0.144,0.663c0.124,0.439,0.261,1.057,0.344,1.352c0.081,0.293,0.187,0.783,0.178,0.96
		c-0.01,0.18,0,0.675,0,1.353s0.06,1.969,0.076,2.673c0.019,0.704,0.053,2.15,0.053,2.721c0.018,0.79-0.098,2.229-0.123,2.678
		c-0.023,0.447-0.104,1.323-0.157,1.782c-0.051,0.462-0.051,0.914-0.074,1.56c-0.025,0.646-0.106,2.144-0.123,2.637
		c-0.018,0.493-0.029,1.512-0.042,1.902c-0.011,0.389-0.017,1.564-0.005,2.017c0.012,0.454-0.006,1.338-0.006,1.788
		c0,0.447,0.018,0.791,0.04,1.08c0.025,0.291,0.013,0.96-0.011,1.433c-0.023,0.471-0.051,2.279-0.086,2.835
		c-0.037,0.56-0.037,1.648-0.065,2.181c-0.028,0.537-0.076,1.616-0.122,1.997c-0.047,0.385-0.111,1.196-0.152,1.688
		c-0.041,0.488-0.005,1.651-0.005,1.967c0,0.312-0.041,1.533-0.036,1.798c0.006,0.26,0,0.714-0.034,1.018
		c-0.034,0.3-0.005,0.445-0.046,0.605c-0.041,0.154-0.041,0.241-0.111,0.569c-0.069,0.325-0.094,0.509-0.146,0.859
		c-0.051,0.349-0.267,1.121-0.355,1.448c-0.087,0.327-0.132,0.652-0.104,0.896c0.059,0.437,0.379,0.749,0.472,0.85
		c0.092,0.1,0.133,0.121,0.185,0.248c0.054,0.129,0.105,0.316,0.227,0.503c0.122,0.184,0.065,0.173,0.028,0.216
		c-0.034,0.039-0.055,0.2,0.008,0.551c0.063,0.349,0.245,0.734,0.353,0.966c0.111,0.233,0.106,0.162,0.275,0.168
		c0.167,0.007,0.092,0.007,0.1,0.187c0.005,0.18-0.042,0.849-0.071,1.058s0.029,0.229,0.05,0.27
		c0.026,0.041,0.021,0.129-0.016,0.186c-0.035,0.057-0.145,0.342-0.179,0.569c-0.037,0.228-0.071,0.304-0.221,0.478
		c-0.152,0.175-0.065,0.343,0,0.486c0.062,0.149,0.051,0.115-0.026,0.173c-0.074,0.054-0.111,0.163-0.111,0.206
		c0,0.039-0.01,0.086-0.027,0.3c-0.021,0.211,0.021,0.281,0.15,0.521c0.126,0.239,0.426,0.489,0.522,0.551
		c0.093,0.061,0.271,0.084,0.482,0.089c0.212,0.006,0.729-0.018,1.039-0.048c0.311-0.028,1.914-0.204,2.21-0.273
		c0.296-0.064,0.729-0.115,1.055-0.163c0.322-0.046,0.659-0.095,0.863-0.146c0.201-0.051,0.179-0.048,0.255-0.165
		c0.075-0.118,0.041-0.301,0.041-0.44c0-0.141-0.041-0.382-0.074-0.45c-0.034-0.073-0.222-0.222-0.305-0.251
		c-0.086-0.028-0.048-0.1-0.035-0.317c0.014-0.581-0.041-0.66-0.248-1.1c-0.207-0.437-0.296-0.488-0.338-0.594
		c-0.043-0.108-0.058-0.245-0.058-0.43c0-0.184-0.056-0.466-0.056-0.571c0-0.11,0.052-0.066,0.134-0.028
		c0.078,0.035,0.112,0.022,0.167-0.052c0.058-0.077,0.105-0.156,0.185-0.271c0.08-0.112,0.175-0.289,0.273-0.493
		c0.099-0.202,0.192-0.402,0.245-0.499c0.052-0.093,0.071-0.103,0.008-0.146c-0.061-0.048,0.024-0.114,0.09-0.241
		c0.175-0.414,0.391-0.822,0.484-1.087s0.179-0.549,0.221-0.981c0.042-0.433,0.095-0.758,0.084-1.336
		c-0.009-0.579,0.01-2.036,0.016-2.503c0.046-1.065,0.167-2.099,0.215-2.662c0.047-0.563,0.222-2.451,0.28-2.882
		c0.063-0.433,0.118-1.589,0.143-2.04c0.024-0.448,0.113-1.166,0.141-1.5c0.03-0.333,0.221-1.466,0.265-1.829
		c0.041-0.36,0.189-1.795,0.239-2.208c0.046-0.416,0.22-1.673,0.283-2.07c0.059-0.393,0.21-1.565,0.252-1.855
		c0.042-0.29,0.064-0.27,0.21-0.71c0.146-0.438,0.189-0.775,0.207-0.93c0.019-0.157,0.118-0.378,0.181-0.517
		c0.06-0.142,0.13-0.325,0.167-0.579c0.014-0.183,0.071-0.529,0.132-0.652c0.061-0.121,0.071-0.258,0.083-0.357
		c0.015-0.099,0.038-0.227,0.066-0.297c0.028-0.068,0.073-0.409,0.118-0.508c0.047-0.099,0.057-0.023,0.077,0.164
		c0.019,0.19,0.041,0.627,0.097,1.063c0.057,0.437,0.151,1.131,0.192,1.476c0.043,0.342-0.008,0.372-0.008,0.743
		s0.022,0.8,0.027,1.193c0.006,0.396-0.061,0.736-0.042,1.014c0.018,0.271,0.171,0.708,0.249,0.947
		c0.081,0.239,0.047,0.393,0.043,0.433c-0.043,0.13-0.048,0.338-0.048,0.583c0,0.243,0.033,0.502,0.061,0.742
		c0.03,0.241-0.019,0.507-0.019,0.724c0,0.215,0.029,0.404,0.049,0.756c0.017,0.353-0.016,1.145,0,1.665
		c0.014,0.522,0.033,1.454,0.033,1.834s0.026,0.873,0.04,1.339c0.015,0.467,0.052,0.656,0.058,0.869
		c0.005,0.213,0.02,0.573,0.042,0.859c0.023,0.287,0.004,0.664,0.008,0.843c0.006,0.179,0.028,0.271,0.028,0.451
		s-0.019,1.236-0.022,1.674c-0.006,0.437,0.009,0.748,0.032,0.896c0.025,0.148,0.011,0.175-0.046,0.456
		c-0.057,0.284-0.072,0.629-0.072,1.152c0,0.521-0.064,1.457-0.078,1.796c-0.015,0.337-0.015,0.956-0.006,1.289
		c0.011,0.326,0.055,0.767,0.042,0.873c-0.015,0.108-0.056,0.1-0.059,0.294c-0.005,0.2-0.04,0.668-0.035,1.009
		c0.004,0.337,0.079,0.423,0.185,0.47c0.101,0.047,0.101,0.052,0.084,0.168c-0.019,0.116,0.056,0.34,0.097,0.422
		c0.043,0.088,0.005,0.093-0.06,0.093c-0.067,0-0.148,0.063-0.228,0.124c-0.079,0.062-0.055,0.275-0.069,0.489
		c-0.015,0.215-0.059,0.719-0.075,0.831c-0.02,0.113-0.09,0.26-0.038,0.415c0.107,0.229,0.339,0.327,0.668,0.46
		c0.328,0.136,0.729,0.27,1.058,0.325c0.408,0.075,0.916,0.15,1.23,0.179c0.314,0.028,0.245,0.019,0.357,0.006
		c0.112-0.013,0.451-0.124,0.691-0.188c0.239-0.067,0.521,0.004,0.622,0.052c0.098,0.047,0.188,0.263,0.253,0.382
		c0.065,0.115,0.116,0.218,0.201,0.289c0.085,0.071,0.13,0.084,0.207,0.1c0.136,0.021,0.63,0.118,0.897,0.144
		c0.269,0.032,1.57,0.054,2.037,0.026c0.464-0.028,1.505-0.123,2.012-0.25c0.508-0.127,1.185-0.273,1.428-0.298
		C35.724,96.943,36.332,96.814,36.422,96.796z"/>
	<path d="M92.757,37.741c-0.083-0.209-0.352-0.694-0.417-0.831c-0.066-0.139-0.053-0.147-0.034-0.292
		c0.021-0.145,0.198-2.026,0.24-2.564c0.042-0.534,0.165-2.204,0.183-2.965c0.02-0.762,0.007-1.338,0.015-1.48
		c0.011-0.141,0.021-0.269,0.011-0.677c-0.011-0.409-0.147-1.541-0.219-2.031c-0.068-0.487-0.256-1.18-0.3-1.33
		c-0.042-0.15-0.027-0.267,0-0.437c0.031-0.168,0.044-0.315,0.047-0.607c0.005-0.29,0.034-0.955,0.02-1.104
		c-0.015-0.144-0.099-0.368-0.158-0.55c-0.062-0.185-0.224-0.539-0.327-0.746c-0.104-0.207-0.318-0.397-0.39-0.442
		c-0.07-0.048-0.397-0.17-0.493-0.178c-0.094-0.009-0.133-0.029-0.201-0.105c-0.069-0.073-0.306-0.122-0.457-0.208
		c-0.151-0.084-0.497-0.3-0.634-0.386c-0.136-0.084-0.593-0.388-0.762-0.472c-0.171-0.085-0.188-0.165-0.396-0.681
		c-0.205-0.516-0.977-2.482-1.099-3.01c-0.122-0.524-1.496-5.642-1.899-6.909c-0.405-1.27-1.222-2.408-1.862-3.009
		c-0.64-0.601-1.822-0.938-2.556-1.016c-0.733-0.073-1.458,0.256-1.787,0.423c-0.33,0.169-0.771,0.425-0.986,0.471
		c-0.218,0.049-0.771,0.442-1.401,0.893c-0.63,0.451-0.959,0.96-1.11,1.561c-0.148,0.601-0.084,2.181,0.047,3.225
		c0.132,1.043,0.329,2.104,0.379,2.45c0.053,0.347,0.196,1.096,0.279,1.575c0.085,0.479,0.323,1.503,0.409,1.928
		c0.089,0.429,0.166,0.627,0.169,0.984c0.006,0.357-0.159,0.522-0.281,0.67c-0.125,0.15-0.076,0.087-0.226,0.27
		c-0.146,0.178-0.371,0.444-0.496,0.609c-0.123,0.165-0.139,0.204-0.256,0.261c-0.121,0.06-0.301,0.105-0.521,0.181
		c-0.225,0.074-0.438,0.168-0.716,0.361c-0.277,0.196-0.452,0.332-0.616,0.437c-0.163,0.106-0.223,0.17-0.372,0.298
		c-0.149,0.13-0.119,0.02-0.277,0.21c-0.159,0.188-0.328,0.511-0.397,0.735c-0.069,0.224-0.124,0.536-0.199,0.773
		c-0.072,0.239-0.202,0.888-0.248,1.132c-0.045,0.245-0.168,0.814-0.212,1.171c-0.047,0.357-0.115,0.661-0.205,1.063
		c-0.089,0.4-0.334,1.483-0.426,2.011c-0.095,0.524-0.334,1.721-0.422,2.138c-0.09,0.417-0.349,1.815-0.427,2.207
		c-0.079,0.395-0.304,1.427-0.332,1.611c-0.03,0.182-0.137,0.709-0.186,1.086c-0.049,0.378-0.218,0.913-0.298,1.252
		c-0.079,0.337-0.179,0.912-0.203,1.261c-0.025,0.347,0.063,0.669,0.083,0.803c0.021,0.137,0.106,0.879,0.12,0.979
		c0.016,0.099-0.014,0.207-0.047,0.448c-0.036,0.238-0.153,1.134-0.176,1.373c-0.024,0.238-0.164,1.81-0.169,2.393
		c-0.006,0.588-0.015,1.482-0.056,2.434c-0.04,0.954-0.172,2.094-0.183,2.191c-0.009,0.093-0.02,0.192-0.06,0.385
		c-0.041,0.192-0.194,1.038-0.264,1.416c-0.069,0.377-0.188,0.94-0.268,1.448c-0.056,0.577-0.115,0.81-0.163,1.047
		c-0.052,0.238-0.062,0.374-0.07,0.615c-0.012,0.245-0.048,0.415-0.119,0.667c-0.07,0.254-0.196,0.65-0.233,0.763
		c-0.038,0.113-0.006,0.154,0.048,0.238c0.05,0.084,0.188,0.557,0.331,0.895c0.146,0.337,0.138,0.413,0.207,0.578
		c0.071,0.165,0.17,0.171,0.213,0.224c0.041,0.058,0.065,0.122,0.248,0.221c0.184,0.102,0.339,0.234,0.48,0.372
		c0.14,0.143,0.437,0.336,0.498,0.391c0.062,0.058,0.131,0.126,0.278,0.217c0.144,0.089,0.304,0.179,0.389,0.254
		c0.087,0.075,0.272,0.254,0.34,0.297c0.062,0.042,0.069,0.057,0.14-0.011c0.07-0.064,0.113-0.14,0.118-0.238
		c0.006-0.102-0.1-0.325-0.113-0.358c-0.014-0.034,0.086-0.01,0.192-0.1c0.108-0.087,0.065-0.18,0.009-0.323
		c-0.056-0.144-0.248-0.302-0.355-0.35c-0.109-0.044-0.171-0.067-0.268-0.117c-0.101-0.048-0.09-0.063-0.096-0.143
		c-0.005-0.082-0.095-0.232-0.164-0.305c-0.07-0.071-0.399-0.257-0.507-0.314c-0.109-0.053-0.132-0.067-0.188-0.143
		c-0.058-0.075-0.086-0.052-0.09-0.223c-0.006-0.171-0.072-0.317-0.115-0.46c-0.041-0.142-0.121-0.394-0.144-0.443
		c-0.023-0.045,0-0.115,0.018-0.263c0.02-0.144,0-0.46-0.003-0.536c-0.006-0.072,0.04-0.078,0.124-0.126
		c0.085-0.048,0.146-0.11,0.177-0.175c0.028-0.064,0.004-0.051,0.111-0.036c0.109,0.015,0.142-0.023,0.221-0.043
		c0.082-0.02,0.048-0.046,0.104,0.142c0.056,0.187,0.028,0.56,0,0.726c-0.028,0.172-0.022,0.427,0.028,0.685
		c0.052,0.258,0.294,0.688,0.455,0.83c0.16,0.143,0.395,0.143,0.507,0.071c0.113-0.071,0.113-0.123,0.082-0.224
		c-0.034-0.105-0.024-0.354-0.049-0.49c-0.023-0.137-0.037-0.623-0.087-0.937c-0.054-0.31-0.064-0.597-0.054-0.794
		c0.008-0.196,0.066-0.561,0.033-0.693c-0.033-0.132,0.021-0.433,0.047-0.704c0.027-0.267-0.011-0.728-0.062-1.019
		c-0.052-0.289-0.29-0.729-0.356-0.852c-0.066-0.123-0.146-0.316-0.146-0.462c0-0.154,0.057-0.444,0.062-0.543
		c0.004-0.097,0.004-0.061,0.055-0.05c0.053,0.009,0.226,0.045,0.386,0.073c0.162,0.028,0.133,0.051,0.193,0.009
		c0.061-0.043,0.023-0.018,0.027,0.097c0.004,0.109,0.015,0.4,0.033,0.869c0.019,0.468,0.132,1.229,0.17,1.616
		c0.037,0.39,0.144,1.626,0.192,2.166c0.05,0.536,0.146,2.139,0.143,2.434c-0.005,0.291,0,1.058-0.011,1.305
		c-0.012,0.245-0.059,0.735-0.059,0.893c0,0.159-0.014,0.588-0.043,0.701c-0.03,0.11-0.023,0.502,0.01,0.616
		c0.033,0.111-0.003,0.594-0.067,0.967c-0.064,0.371-0.316,1.724-0.376,1.996c-0.06,0.27-0.247,1.112-0.293,1.339
		c-0.044,0.224-0.219,0.848-0.297,1.087c-0.08,0.238-0.285,0.944-0.31,1.072c-0.023,0.126-0.059,0.126,0.034,0.161
		c0.095,0.034,0.692,0.172,0.765,0.169c0.071-0.006,0.045,0.078,0.005,0.154c-0.043,0.072-0.021,0.103,0.046,0.161
		c0.067,0.06,0.253,0.12,0.499,0.156c0.243,0.041,1.043,0.168,1.143,0.182c0.098,0.018,0.078,0.065,0.044,0.137
		c-0.032,0.071,0.158,0.124,0.379,0.186c0.223,0.066,0.636,0.157,0.741,0.17c0.107,0.007,0.078,0.02,0.092,0.143
		c0.016,0.123,0.071,0.437,0.141,0.751c0.07,0.316,0.291,1.307,0.378,1.788c0.084,0.478-0.028,1.362-0.076,1.773
		c-0.048,0.404-0.137,1.162-0.197,1.793c-0.062,0.628-0.095,0.988-0.072,1.519c0.024,0.529,0.185,1.144,0.259,1.537
		c0.075,0.395,0.188,1.73,0.253,2.46c0.067,0.727,0.213,2.075,0.312,2.906c0.16,1.077,0.17,1.368,0.202,2.205
		c0.024,1.407-0.121,1.986-0.168,2.158c-0.048,0.174-0.297,0.777-0.434,1.274c-0.135,0.499-0.01,0.799,0.043,1.029
		c0.052,0.229,0.045,0.362,0.032,0.479c-0.014,0.118-0.065,0.239-0.088,0.404c-0.024,0.166-0.037,0.441,0.019,0.71
		s0.065,0.451,0.089,0.672c0.023,0.222,0.034,0.387,0.093,0.54c0.063,0.155,0.043,0.138,0.081,0.295
		c0.036,0.16,0.108,0.708,0.174,0.973c0.065,0.269,0.091,0.588,0.101,0.674c0.006,0.086,0.017,0.077-0.166,0.099
		c-0.184,0.025-0.354,0.071-0.56,0.146s-0.586,0.079-0.678,0.112c-0.108,0.107-0.163,0.229-0.047,0.353
		c0.118,0.122,0.307,0.222,0.579,0.278c0.273,0.057,0.547,0.083,0.69,0.126c0.146,0.043,0.075,0.028,0.049,0.226
		c-0.029,0.196-0.039,0.293-0.006,0.671c0.032,0.383,0.061,0.43,0.103,0.546c0.041,0.118,0.052,0.192,0.057,0.282
		c0.005,0.092,0.071,0.138,0.277,0.312c0.207,0.174,0.358,0.211,0.539,0.297c0.184,0.084,0.35,0.112,0.617,0.162
		c0.269,0.054,0.682,0.081,0.922,0.09c0.238,0.011,0.762-0.017,0.974-0.116c0.209-0.099,0.704-0.471,0.948-0.753
		c0.244-0.28,0.269-0.571,0.25-1.01c-0.02-0.44-0.091-0.792-0.118-0.862c-0.028-0.067-0.042-0.059,0.165-0.158
		c0.207-0.099,0.658-0.356,0.919-0.541c0.266-0.182,0.414-0.399,0.509-0.564c0.096-0.165,0.292-0.603,0.424-0.854
		c0.104-0.365,0.483-0.835,0.61-0.964s0.598-0.606,0.742-0.752c0.146-0.144,0.138-0.137,0.265-0.185
		c0.126-0.045,0.187-0.064,0.315-0.129c0.125-0.058,0.089-0.043,0.243,0.041c0.155,0.086,0.189,0.264,0.245,0.494
		c0.056,0.229,0.183,1.897,0.201,2.148c0.02,0.248,0.025,0.555,0,0.676c-0.022,0.122-0.07,0.159,0.066,0.181
		c0.137,0.026,0.272,0.026,0.329-0.009c0.056-0.03,0.023-0.041,0.11-0.046c0.081-0.004,0.067,0.005,0.061-0.122
		c-0.012-0.125-0.043-0.488-0.096-1.254c-0.107-0.843-0.075-1.655-0.034-2.017c0.044-0.361,0.283-0.695,0.462-0.942
		c0.179-0.244,0.326-0.487,0.373-0.562c0.044-0.077,0.027-0.14,0.097-0.245c0.069-0.103,0.069-0.188,0.061-0.317
		c-0.009-0.135-0.163-0.777-0.356-1.109c-0.192-0.336-0.607-0.824-0.821-1.063c-0.217-0.239-0.369-0.302-0.42-0.329
		c-0.051-0.029-0.042-0.043-0.051-0.099c-0.009-0.057-0.037-0.183-0.167-0.634c-0.124-0.454-0.253-1.071-0.351-1.713
		c-0.1-0.639-0.188-1.603-0.195-2.044c-0.012-0.441-0.021-2.278-0.035-2.671c-0.015-0.39-0.033-2.059-0.037-2.537
		c-0.004-0.479,0.065-0.762,0.163-1.13c0.101-0.365,0.316-0.953,0.308-1.924c-0.012-0.975-0.285-2.199-0.421-2.874
		c-0.142-0.767-0.32-1.265-0.356-1.37c-0.033-0.108-0.029-0.131,0.105-0.127c0.13,0.005,0.899-0.125,1.002-0.166
		c0.102-0.043,0.121-0.066,0.121-0.138c0-0.075-0.055-0.404-0.071-0.517c-0.018-0.111-0.047-0.104,0.13-0.109
		c0.175-0.005,0.758-0.127,0.945-0.175c0.186-0.049,0.395-0.102,0.437-0.142c0.042-0.043,0.042-0.071-0.01-0.153
		s-0.071-0.399-0.112-0.551c-0.041-0.146-0.036-0.297-0.081-0.424c-0.045-0.131-0.142-0.449-0.244-0.93
		c-0.101-0.481-0.369-1.7-0.5-2.342c-0.132-0.639-0.269-1.758-0.312-2.571c-0.04-0.82,0.038-2.205,0.062-2.39
		c0.022-0.185,0.051-0.213,0.122-0.312c0.069-0.1,0.056-0.087,0.092-0.083c0.039,0.005,0.09,0.059,0.172,0.053
		c0.079-0.005,0.121-0.108,0.24-0.199c0.116-0.088,0.332-0.331,0.417-0.417c0.085-0.085,0.184-0.243,0.198-0.286
		c0.014-0.044,0.062-0.056,0.122,0.038c0.106,0.149,0.23,0.104,0.273,0.065c0.04-0.037,0.068-0.1,0.126-0.117
		c0.055-0.02,0.179-0.179,0.311-0.326c0.172-0.18,0.192-0.316,0.291-0.474c0.098-0.159,0.24-0.362,0.312-0.452
		c0.077-0.09,0.13-0.214,0.124-0.379c-0.005-0.204,0.121-0.551,0.175-0.82c0.051-0.265,0.173-0.413,0.229-0.58
		c0.058-0.173,0.189-0.758,0.18-0.922c-0.01-0.165,0.146-0.917,0.192-1.162c0.048-0.245,0.024-0.757-0.021-1.15
		c-0.051-0.397,0.137-0.95,0.194-1.105c0.059-0.156,0.282-0.471,0.35-0.583c0.063-0.114,0.121-0.547,0.132-0.655
		c0.008-0.109,0.098-0.116,0.195-0.144C89.21,49.95,89.184,50,89.17,50.086c-0.013,0.086-0.003,0.172,0.02,0.286
		c0.023,0.112,0.063,0.076,0.179-0.185c0.118-0.257,0.264-0.934,0.354-1.29c0.088-0.357,0.3-1.379,0.334-1.566
		c0.032-0.19,0.046-0.392,0.085-0.451c0.039-0.1,0.108-0.437,0.141-0.593c0.03-0.156,0.042-0.156,0.069-0.188
		c0.027-0.034,0.047-0.036,0.081-0.095c0.033-0.058,0.061-0.132,0.126-0.203c0.066-0.071,0.164-0.21,0.35-0.484
		c0.182-0.27,0.328-0.576,0.426-0.804c0.098-0.227,0.193-0.479,0.249-0.591c0.056-0.116,0.188-0.381,0.23-0.466
		c0.043-0.085,0.062-0.145,0.057-0.254c-0.004-0.109,0.027-0.365,0.057-0.45c0.029-0.084,0.038-0.199,0.042-0.304
		c0.007-0.102,0.016-0.344,0.045-0.417c0.024-0.071,0.044-0.337,0.039-0.443c-0.004-0.101,0.015-0.143,0.081-0.314
		c0.066-0.166,0.306-0.859,0.441-1.279c0.164-0.439,0.249-1.123,0.311-1.551C92.947,38.02,92.842,37.952,92.757,37.741z
		 M80.076,88.305c-0.05,0.591-0.063,1.077-0.135,1.396c-0.07,0.315-0.31,1.043-0.516,1.527c-0.204,0.488-0.408,1.081-0.483,1.283
		c-0.078,0.202-0.065,0.32-0.123,0.066c-0.055-0.254-0.183-0.769-0.323-1.024c-0.141-0.254-0.226-0.365-0.289-0.463
		c-0.063-0.101-0.042-0.06-0.021-0.208c0.021-0.147,0.043-0.314,0.085-0.439c0.043-0.131,0.014-0.51-0.028-0.639
		c-0.043-0.125-0.099-0.422-0.119-0.676c-0.022-0.254,0.062-1.909,0.068-1.882c0.116,0.461,0.179-1.143,0.369-1.969
		c0.189-0.824,0.337-1.366,0.506-2.699c0.114-0.755,0.198-1.253,0.241-1.452c0.041-0.198,0.064-0.256,0.089-0.085
		c0.029,0.171,0.256,0.882,0.354,1.778c0.099,0.894,0.34,2.748,0.373,3.632C80.161,87.332,80.124,87.712,80.076,88.305z
		 M87.768,40.088c-0.051,0.073-0.319,0.503-0.386,0.901c-0.071,0.353-0.148,0.843-0.171,1.299c-0.021,0.457-0.049,1.202-0.049,1.357
		c0,0.152-0.036,0.274-0.067,0.462c-0.032,0.187-0.076,0.444-0.082,0.098c-0.007-0.346-0.012-0.391-0.133-0.953
		c-0.121-0.561-0.22-1.006-0.248-1.327c-0.026-0.321-0.038-0.537-0.093-0.773c-0.056-0.234-0.089-0.693-0.248-0.94
		c-0.16-0.248-0.177-0.228-0.143-0.282c0.033-0.056,0.016-0.187-0.018-0.32c-0.034-0.13-0.131-0.356-0.203-0.44
		c-0.073-0.082-0.143-0.221-0.149-0.274c-0.005-0.057,0.045-0.088,0.171-0.088c0.128,0,0.31,0.011,0.475-0.069
		c0.164-0.077,0.226-0.104,0.379-0.141c0.155-0.041,0.292-0.072,0.314-0.204c0.021-0.13,0.045-0.429,0.143-0.645
		c0.099-0.215,0.198-0.445,0.204-0.612c0.007-0.165-0.011-0.567-0.027-0.726c-0.018-0.162-0.045-0.316-0.138-0.497
		c-0.094-0.182-0.144-0.352-0.094-0.423c0.051-0.073,0.094-0.184,0.149-0.267c0.055-0.083,0.076-0.093,0.082-0.042
		c0.007,0.05,0.066,0.55,0.082,0.791c0.017,0.244,0.192,1.214,0.243,1.314c0.051,0.099,0.033,0.17-0.027,0.289
		c-0.062,0.122-0.104,0.144-0.126,0.293c-0.023,0.15-0.15,0.397-0.133,0.579c0.017,0.185,0.076,0.408,0.136,0.552
		c0.061,0.142,0.051,0.429,0.089,0.544c0.04,0.117,0.095,0.292,0.105,0.353C87.816,39.957,87.816,40.008,87.768,40.088z"/>
	<path d="M66.664,29.139c0.025-0.042,0.155-0.094,0.165-0.334c0.016-0.318-0.442-0.727-0.498-0.767
		c-0.057-0.036-0.033-0.055-0.019-0.081c0.014-0.029,0.159-0.165,0.173-0.343c0.021-0.255-0.084-0.271-0.136-0.342
		c-0.052-0.069-0.019-0.178,0.062-0.365c0.079-0.188-0.044-0.369-0.108-0.573c-0.066-0.207-0.038-0.542-0.018-0.656
		c0.018-0.11-0.017-0.209-0.061-0.302c-0.048-0.098-0.082-0.273-0.124-0.478c-0.042-0.201-0.112-0.432-0.169-0.524
		c-0.055-0.097-0.029-0.086-0.01-0.163c0.02-0.073,0.066-0.295,0.112-0.479c0.048-0.181-0.019-0.342-0.061-0.414
		c-0.042-0.068-0.109-0.147-0.126-0.201c-0.021-0.052-0.199-0.258-0.366-0.389c-0.17-0.133-0.371-0.176-0.444-0.176
		c-0.068,0-0.078,0-0.327-0.143c-0.248-0.139-0.673-0.309-0.897-0.366c-0.227-0.054-0.76-0.178-0.961-0.213
		c-0.202-0.037-0.207-0.07-0.336-0.153c-0.129-0.08-0.354-0.167-0.509-0.215c-0.159-0.045-0.302-0.08-0.476-0.102
		c-0.172-0.022-0.213-0.148-0.508-0.414c-0.294-0.267-0.675-0.655-0.884-0.859c-0.206-0.21-0.322-0.326-0.388-0.403
		c-0.066-0.081-0.242-0.32-0.442-0.622c-0.2-0.301-0.277-0.272-0.41-0.295c-0.132-0.021-0.084-0.033-0.092-0.179
		c-0.006-0.144-0.003-0.576,0.032-0.776c0.034-0.202,0.266-1.134,0.304-1.296c0.038-0.166,0.029-0.111,0.172-0.29
		c0.244-0.312,0.37-0.559,0.478-0.88c0.104-0.32,0.141-1.075,0.166-1.324c0.025-0.247,0.028-0.189,0.167-0.184
		c0.277,0.02,0.373-0.057,0.541-0.182c0.17-0.125,0.34-0.583,0.467-0.98c0.128-0.395,0.109-0.926,0.098-1.107
		c-0.012-0.179,0.065-0.453,0.141-0.632s0.051-0.317-0.004-0.406c-0.058-0.084-0.125-0.104-0.219-0.111
		c-0.094-0.002-0.178,0.082-0.233,0.165c-0.059,0.08-0.066,0.111-0.108,0.139c-0.074,0.031-0.091-0.04-0.094-0.286
		c-0.037-1.577-0.311-2.548-0.479-3.129c-0.171-0.584-1.636-2.189-2.98-2.273c-1.449-0.106-1.815-0.172-3.62,0.967
		c-1.803,1.137-1.514,3.996-1.51,4.183c0.006,0.188,0.006,0.645-0.004,0.757c-0.012,0.114,0.004,0.187-0.036,0.158
		c-0.037-0.012-0.096-0.104-0.156-0.166c-0.062-0.068-0.157-0.142-0.253-0.076c-0.095,0.064-0.127,0.192-0.118,0.329
		c0.01,0.136,0.046,0.284,0.099,0.442c0.053,0.159,0.033,0.289,0.047,0.452c0.014,0.158,0.084,0.602,0.149,0.814
		c0.064,0.21,0.104,0.345,0.218,0.666c0.111,0.321,0.275,0.437,0.431,0.508c0.156,0.07,0.254,0.073,0.345,0.057
		c0.089-0.02,0.069-0.02,0.084,0.113c0.015,0.13,0.057,0.446,0.146,0.888c0.087,0.437,0.149,0.487,0.193,0.582
		c0.045,0.093,0.031,0.161,0.045,0.425c0.011,0.263-0.026,0.578-0.063,0.788c-0.038,0.216-0.095,0.352-0.156,0.409
		c-0.063,0.055-0.069,0.03-0.19-0.063c-0.117-0.093-0.161-0.051-0.406,0.026c-0.243,0.073-0.739,0.413-1.096,0.561
		c-0.358,0.153-0.884,0.448-1.079,0.497c-0.194,0.051-0.295,0.077-0.433,0.19c-0.137,0.11-0.113,0.079-0.169,0.079
		c-0.057,0-0.226-0.011-0.376-0.048c-0.152-0.039-0.164-0.05-0.333,0.012c-0.169,0.062-0.218,0.113-0.333,0.1
		c-0.112-0.012-0.558-0.063-0.896-0.095c-0.337-0.03-0.808-0.025-1.003-0.025c-0.194,0-0.321-0.03-0.483-0.042
		c-0.163-0.015-0.437,0.056-0.695,0.162c-0.257,0.107-0.59,0.408-0.652,0.516c-0.088,0.149-0.188,0.35-0.238,0.508
		c-0.039,0.093-0.089,0.658-0.093,0.881c-0.006,0.227,0.032,0.065-0.151,0.587c-0.183,0.522-0.349,1.532-0.422,1.898
		c-0.077,0.366-0.26,1.42-0.342,1.937c-0.08,0.695-0.258,1.545-0.358,2.054c-0.1,0.507-0.156,1.415-0.18,1.951
		c-0.023,0.536,0.066,1.707,0.115,2.181c0.045,0.474,0.188,1.345,0.28,1.772c0.095,0.426,0.192,0.715,0.242,0.8
		c0.045,0.085,0.083,0.284,0.127,0.409c0.039,0.122,0.102,0.167,0.218,0.258c0.119,0.087,0.084,0.084,0.113,0.17
		c0.029,0.083,0.128,0.209,0.197,0.217c0.072,0.012,0.082,0.035,0.152,0.076c0.068,0.043,0.229,0.174,0.266,0.216
		c0.039,0.043,0.075,0.02,0.075,0.128s0.104,0.389,0.123,0.457c0.019,0.065-0.009,0.159,0.014,0.357
		c0.025,0.197-0.009,0.211,0.112,0.225c0.123,0.014,0.133,0.019,0.213-0.022c0.08-0.043,0.085-0.012,0.1,0.049
		c0.014,0.063,0.027,0.203,0.121,0.194c0.094-0.009,0.151-0.003,0.236-0.065c0.085-0.06,0.099-0.037,0.126,0.071
		c0.061,0.236,0.076,0.437,0.112,0.811c0.039,0.377,0.053,0.399,0.033,0.58c-0.02,0.178-0.051,0.535-0.057,0.733
		c-0.004,0.196,0.006,0.173-0.08,0.245c-0.083,0.07-0.135,0.079-0.239,0.145c-0.103,0.064-0.153,0.119-0.155,0.258
		c-0.005,0.141-0.015,0.411-0.028,0.734c-0.014,0.323-0.026,0.82-0.026,0.856c0,0.037-0.059,0.116-0.101,0.411
		c-0.042,0.298-0.052,1.313-0.049,1.565c0.006,0.256-0.187,1.126-0.256,1.521c-0.072,0.393-0.155,1.075-0.167,1.381
		c-0.008,0.306-0.049,1.644-0.069,1.967c-0.018,0.316-0.17,1.653-0.203,1.918c-0.034,0.271-0.076,0.729-0.076,0.884
		c0,0.157,0.057,0.16,0.162,0.193c0.103,0.034,0.141,0,0.271-0.005c0.131-0.004,0.085,0.02,0.05,0.132
		c-0.041,0.114-0.106,0.26-0.171,0.46c-0.062,0.25-0.113,0.423-0.174,0.522c-0.062,0.1-0.075,0.248-0.075,0.362
		c0,0.111-0.025,0.241-0.08,0.324c-0.057,0.085-0.072,0.241-0.049,0.328c0.025,0.088,0.059,0.271,0.006,0.607
		c-0.051,0.337-0.113,0.395-0.213,0.499c-0.096,0.101-0.035,0.303,0,0.389c0.04,0.085,0.072,0.144,0.072,0.278
		c0,0.13-0.046,0.18-0.08,0.292c-0.033,0.111-0.027,0.517-0.027,0.606c0,0.089-0.08,0.282-0.213,0.459
		c-0.129,0.181-0.06,0.381-0.017,0.531c0.042,0.149-0.005,0.316-0.043,0.521c-0.037,0.206-0.117,0.499-0.136,0.555
		c-0.019,0.061-0.103,0.566-0.169,0.889c-0.081,0.475-0.259,1.684-0.326,2.196c-0.065,0.513-0.155,1.151-0.226,1.874
		c-0.068,0.725-0.115,1.386-0.135,1.773c-0.018,0.385-0.056,2.054-0.056,2.701c0,0.649-0.096,1.59-0.098,1.745
		c-0.006,0.154-0.006,0.21-0.035,0.316c-0.028,0.101-0.059,0.441-0.103,0.835c-0.042,0.396-0.227,1.391-0.254,1.547
		c-0.029,0.155-0.057,0.45-0.198,0.779c-0.14,0.33-0.328,0.903-0.384,1.076c-0.056,0.175-0.218,0.8-0.269,1.248
		c-0.042,0.474-0.164,1.059-0.221,1.319c-0.057,0.26-0.069,0.254-0.15,0.464c-0.08,0.214-0.122,0.364-0.117,0.532
		c0.006,0.169-0.038,0.396-0.078,0.607c-0.043,0.211-0.158,0.69-0.222,0.99c-0.067,0.302-0.175,0.778-0.259,1.086
		c-0.084,0.312-0.26,0.859-0.287,1.152c-0.029,0.292-0.109,0.879-0.132,1.122c-0.023,0.244-0.197,0.999-0.287,1.417
		c-0.122,0.663-0.362,1.659-0.461,2.067c-0.098,0.412-0.248,1.001-0.305,1.228c-0.055,0.224-0.184,0.766-0.225,0.936
		c-0.042,0.169-0.089,0.347-0.166,0.506c-0.074,0.16-0.204,0.522-0.274,0.762c-0.073,0.241-0.388,1.261-0.534,1.699
		c-0.144,0.435-0.294,0.862-0.426,1.227c-0.118,0.361-0.268,0.77-0.287,0.977c-0.018,0.205-0.038,0.819-0.038,1.025
		c0,0.208,0.006,0.694-0.022,0.854c-0.028,0.161-0.072,0.697-0.072,0.844c0,0.146-0.03,0.256-0.064,0.363
		c-0.034,0.114-0.048,0.228-0.01,0.27c0.039,0.045,0.039,0.052-0.028,0.109c-0.16,0.155-0.201,0.385-0.206,0.47
		s-0.005,0.069-0.065,0.141c-0.062,0.072-0.07,0.121-0.198,0.156c-0.127,0.033-0.268,0.161-0.324,0.241
		c-0.055,0.078-0.075,0.181-0.099,0.243c-0.022,0.062-0.032,0.049-0.132,0.099c-0.098,0.045-0.182,0.093-0.253,0.153
		c-0.07,0.062-0.107,0.156-0.164,0.208c-0.057,0.055-0.175,0.146-0.244,0.247c-0.073,0.095-0.054,0.105-0.127,0.151
		c-0.074,0.049-0.155,0.095-0.278,0.299c-0.122,0.2-0.212,0.31-0.272,0.374c-0.062,0.064-0.028,0.061-0.033,0.119
		c-0.006,0.054,0.033,0.124,0.112,0.181c0.081,0.058,0.081,0.029,0.058,0.138c-0.023,0.109,0.088,0.213,0.112,0.243
		c0.023,0.034,0.02,0.081,0.085,0.165c0.066,0.085,0.231,0.113,0.497,0.17c0.27,0.055,0.564,0.061,0.874,0.084
		c0.312,0.022,0.727-0.034,1.036-0.084c0.312-0.051,0.973-0.208,1.265-0.313c0.29-0.108,0.624-0.189,0.882-0.28
		c0.259-0.099,0.566-0.221,0.688-0.388c0.122-0.191,0.093-0.543,0.07-0.753c-0.023-0.213,0.047-0.381,0.098-0.506
		c0.051-0.129,0.042-0.17,0.051-0.27c0.01-0.1,0.162-0.374,0.228-0.494c0.065-0.116,0.065-0.127,0.15-0.111
		c0.085,0.013,0.729,0.152,0.814,0.176c0.083,0.026,0.06,0.034,0.06,0.145c0,0.105-0.023,0.278-0.027,0.327
		c-0.004,0.045-0.058,0.164-0.081,0.263c-0.023,0.101,0.038,0.081,0.296,0.132c0.259,0.051,0.805,0.141,0.983,0.162
		c0.179,0.016,0.353-0.041,0.429-0.097c0.072-0.058,0.032-0.088,0-0.159c-0.035-0.071-0.025-0.236-0.039-0.316
		c-0.015-0.077-0.01-0.07,0.09-0.056c0.098,0.016,0.45,0.086,0.662,0.143c0.21,0.056,1.105,0.187,1.382,0.224
		c0.279,0.039,0.616,0.086,0.738,0.093c0.122,0.013,0.156,0.036,0.197,0.058c0.043,0.025,0.218,0.029,0.399,0.047
		c0.184,0.021,0.182,0.059,0.254,0.085c0.076,0.03,0.142,0.043,0.197,0c0.055-0.042,0.169-0.153,0.226-0.276
		c0.057-0.122,0.057-0.15,0.057-0.363c0-0.211-0.008-0.506,0.021-0.581c0.026-0.076,0.026-0.256,0.026-0.379
		c0-0.12,0.015-0.322,0.015-0.497c0-0.172,0.258-2.051,0.333-2.593c0.133-0.879,0.322-2.011,0.382-2.408
		c0.033-0.347,0.321-2.306,0.366-2.647c0.048-0.336,0.292-2.504,0.325-2.878c0.032-0.377,0.154-1.605,0.174-1.806
		c0.008-0.323,0.15-2.023,0.168-2.343c0.019-0.318,0.071-1.658,0.08-1.843c0.01-0.185,0.095-1.566,0.104-1.786
		c0.008-0.222,0.074-1.18,0.088-1.35c0.015-0.168,0.061-0.945,0.089-1.282c0.029-0.338,0.034-0.54,0.046-0.695
		c0.015-0.155,0.072-0.711,0.085-0.809c0.015-0.1,0.048-0.237,0.037-0.321c-0.007-0.078,0.031-0.309,0.082-0.536
		c0.051-0.224,0.079-0.772,0.095-0.985c0.013-0.213,0.154-1.059,0.183-1.274c0.027-0.215,0.055-0.46,0.032-0.563
		c-0.021-0.102,0.005-0.236,0.022-0.409c0.02-0.174,0.025-0.273,0.078-0.385c0.05-0.11,0.207-0.573,0.314-0.91
		c0.108-0.343,0.206-0.853,0.244-1.072c0.04-0.222,0.122-0.881,0.118-0.94c-0.005-0.061,0.033-0.11,0.112-0.252
		c0.1-0.166,0.272-0.604,0.318-0.803c0.049-0.197,0.133-0.479,0.133-0.665c0-0.189,0.155-0.544,0.292-0.882
		c0.136-0.338,0.669-1.537,0.781-1.814c0.088-0.192,0.601-1.265,1.085-2.776c0.217-0.604,0.568-1.832,0.719-2.34
		c0.151-0.512,0.386-0.97,0.46-1.092c0.076-0.123,0.341-0.513,0.401-0.666c0.057-0.113,0.047-0.113,0.102-0.125
		c0.058-0.01,0.239-0.011,0.368-0.023c0.125-0.009,0.083,0.007,0.163,0.113c0.082,0.108,0.091,0.263,0.091,0.458
		c0,0.191-0.013,0.43,0.011,0.895c0.026,0.463,0.089,0.878,0.17,1.241c0.068,0.5,0.199,1.034,0.251,1.236
		c0.189,0.544,0.314,1.363,0.402,1.985c0.086,0.62,0.13,1.854,0.163,2.314c0.031,0.456,0.062,1.689,0.084,1.997
		c0.028,0.309,0.046,0.703,0.065,0.99c0.019,0.287,0.03,0.754,0.03,0.959s0.021,1.216,0.015,1.371
		c-0.009,0.157,0.006,0.751,0.049,0.979c0.043,0.225,0.063,0.356,0.05,0.689c-0.012,0.333,0.051,0.585,0.057,0.835
		c0.006,0.249,0.058,0.406,0.031,0.538c-0.025,0.129-0.063,0.451-0.055,0.777c0.005,0.324,0.018,0.733-0.009,1.383
		c-0.024,0.653,0.058,1.218,0.076,1.606c0.02,0.387,0.114,1.974,0.105,2.875c-0.006,0.903,0,2.068-0.011,2.596
		c-0.015,0.527-0.007,1.979,0,2.403c0.005,0.419-0.007,1.515,0.005,1.917c0.015,0.399-0.043,0.569-0.1,1.072
		c-0.058,0.499-0.096,1.482-0.138,2.081c-0.043,0.594-0.157,2.209-0.193,2.624c-0.04,0.414-0.083,1.296-0.096,1.604
		c-0.012,0.308-0.05,0.444,0.02,0.783c0.067,0.337,0.539,1.542,0.591,1.649c0.048,0.105,0.048,0.268,0.048,0.589
		c0,0.319,0.032,0.648,0.049,0.866c0.02,0.217,0.067,0.744,0.067,0.783c0,0.036,0.08,0.056,0.286,0.144
		c0.208,0.085,0.301,0.175,0.387,0.25c0.088,0.075,0.14,0.08,0.371,0.08c0.23,0,0.293-0.028,0.37-0.074
		c0.075-0.043,0.038,0.102,0.056,0.345c0.02,0.244,0.105,0.484,0.143,0.576c0.039,0.096,0.053,0.176,0.032,0.27
		c-0.018,0.093-0.023,0.182,0.127,0.295c0.15,0.114,0.187,0.17,0.3,0.302c0.111,0.129,0.344,0.271,0.733,0.337
		c0.389,0.069,0.954,0.102,1.291,0.096c0.34-0.009,0.996-0.057,1.242-0.096c0.243-0.038,0.708-0.099,0.896-0.27
		c0.188-0.169,0.325-0.545,0.413-0.728c0.089-0.182,0.101-0.343,0.082-0.455c-0.018-0.113-0.163-0.435-0.214-0.519
		c-0.049-0.079-0.054-0.172-0.049-0.259c0.006-0.088-0.02-0.103,0.093-0.107c0.114-0.006,0.751,0.02,0.967,0.024
		c0.212,0.006,0.281,0.006,0.414-0.03c0.129-0.037,0.3-0.062,0.394-0.062s0.15,0.02,0.238-0.021
		c0.088-0.037,0.111-0.112,0.162-0.213c0.05-0.099,0.042-0.355,0.05-0.511c0.008-0.156-0.024-0.374-0.017-0.478
		c0.004-0.099,0.017-0.258,0.024-0.56c0.005-0.296,0-0.658,0.005-0.787c0.007-0.13,0-0.343,0.012-0.56
		c0.013-0.213,0.046-0.659,0.038-0.996c-0.006-0.337,0.059-1.221,0.075-1.555c0.02-0.332,0.025-0.532-0.006-0.775
		c-0.03-0.245-0.158-2.005-0.182-2.219c-0.022-0.217-0.142-1.576-0.163-1.824c-0.024-0.242-0.1-1.545-0.128-1.896
		c-0.027-0.352-0.047-1.109-0.047-1.289c0-0.179-0.019-0.275-0.038-0.428c-0.02-0.155-0.127-0.4-0.159-0.772
		c-0.034-0.37-0.133-1.238-0.175-1.722c-0.041-0.477-0.235-2.239-0.266-2.623c-0.034-0.376-0.102-1.324-0.102-1.539
		c0-0.216-0.027-0.731-0.065-0.93c-0.036-0.199-0.064-0.472-0.079-0.694c-0.015-0.222-0.085-0.666-0.099-0.918
		c-0.015-0.256-0.038-0.515-0.041-0.635c-0.007-0.123-0.025-0.431-0.054-0.631s-0.006-0.333-0.018-0.658
		C65,71.42,64.959,70.753,64.93,70.598c-0.029-0.153-0.036-0.687-0.036-0.91c0-0.229-0.071-1.622-0.076-1.976
		c-0.006-0.353,0.005-1.229,0.005-1.5c0-0.266,0.023-0.854,0.062-1.089c0.08-0.364,0.132-0.945,0.144-1.484
		c0.016-0.543-0.009-2.061,0.006-2.803c0.015-0.745,0.086-1.354,0.185-2.215c0.098-0.861,0.197-1.17,0.277-1.607
		c0.099-0.53,0.332-1.579,0.489-2.3c0.153-0.718,0.216-1.826,0.24-2.068c0.021-0.239,0.04-0.578,0.088-0.702
		c0.047-0.129,0.033-0.247-0.01-0.429c-0.103-0.328-0.075-0.536-0.088-0.665c-0.015-0.123,0.003-0.107,0.092-0.107
		c0.142-0.024,0.104-0.211,0.1-0.376c-0.005-0.163-0.075-0.482-0.118-0.681c-0.042-0.196-0.121-0.586-0.164-0.702
		c-0.042-0.112-0.113-0.402-0.145-0.708c-0.034-0.306-0.101-0.831-0.17-1.33c-0.069-0.502-0.101-0.586-0.138-0.71
		s-0.139-0.586-0.188-0.788c-0.051-0.203-0.176-0.527-0.308-0.866c-0.133-0.34-0.281-0.686-0.293-0.814
		c-0.012-0.126-0.058-0.505-0.11-0.754c-0.048-0.247-0.076-0.463-0.07-0.641c0.002-0.176-0.023-0.323-0.09-0.482
		c-0.066-0.159-0.349-0.535-0.444-0.638c-0.097-0.104-0.345-0.41-0.453-0.537c-0.107-0.128-0.475-0.941-0.501-1.036
		c-0.028-0.093-0.077-0.137-0.18-0.266c-0.099-0.13-0.427-0.503-0.494-0.625c-0.064-0.118-0.148-0.26-0.224-0.357
		c-0.071-0.096-0.208-0.471-0.257-0.566c-0.052-0.1,0.021-0.224,0.113-0.449c0.094-0.227,0.3-0.592,0.377-0.707
		c0.077-0.116,0.064-0.093,0.249,0.022c0.186,0.117,0.589,0.126,0.768,0.072c0.179-0.052,0.869-0.4,1.217-0.629
		c0.625-0.392,0.856-0.815,1.049-1.167c0.489-0.986,0.767-2.087,0.92-2.731c0.156-0.624,0.161-1.184,0.156-1.512
		c-0.005-0.331-0.249-1.17-0.263-1.355C66.632,29.23,66.641,29.182,66.664,29.139z"/>
</g>
</svg>
