<?xml version="1.0" encoding="utf-8"?>
<!-- Generator: Adobe Illustrator 16.0.0, SVG Export Plug-In . SVG Version: 6.00 Build 0)  -->
<!DOCTYPE svg PUBLIC "-//W3C//DTD SVG 1.1//EN" "http://www.w3.org/Graphics/SVG/1.1/DTD/svg11.dtd">
<svg version="1.1" id="Layer_1" xmlns="http://www.w3.org/2000/svg" xmlns:xlink="http://www.w3.org/1999/xlink" x="0px" y="0px"
	 width="80px" height="80px" viewBox="23 23 80 80" enable-background="new 23 23 80 80" xml:space="preserve">
<g>
	<g>
		<g>
			<path d="M91.523,41.708c-0.105-0.065-0.219-0.107-0.33-0.159c-0.903-0.592-1.914-1.028-2.942-1.282l-2.054,2.066l-1.988-2.088
				c-0.007,0.001-0.015,0.001-0.021,0.004c-0.986,0.235-1.955,0.645-2.829,1.195c-0.22,0.067-0.436,0.153-0.643,0.271
				c-1.275,0.716-2.488,0.856-3.816,0.443c-4.399-1.371-8.495-8.083-9.702-10.549c-0.322-0.663-0.848-1.152-1.459-1.456
				l-0.878-0.292c-0.636-0.11-1.311-0.036-1.935,0.269c-1.589,0.771-2.251,2.685-1.48,4.273c0.188,0.385,0.886,1.776,2.018,3.549
				l0.753,1.14c2.362,3.435,6.09,7.703,10.766,9.167c0.925,0.29,1.858,0.451,2.787,0.5V65.61c0,0.871,0.17,1.681,0.47,2.426
				c-0.021,0.159-0.049,0.315-0.049,0.482l0.002,30.623c0,2.088,1.693,3.779,3.78,3.779c2.087-0.001,3.779-1.692,3.779-3.779
				L85.75,72.86c0.15,0.007,0.299,0.019,0.45,0.019c0.028,0,0.058-0.004,0.089-0.006l-0.002,26.269c0,2.087,1.692,3.779,3.78,3.779
				l0,0c2.087,0,3.779-1.692,3.779-3.779l0.001-30.043c0.198,0.189,0.416,0.364,0.667,0.503c0.486,0.263,1.011,0.389,1.526,0.389
				c1.135,0,2.231-0.604,2.812-1.671C107.875,51.737,95.568,44.189,91.523,41.708z M86.219,58.636h-0.038l-1.986-2.719l1.986-13.279
				h0.038l1.987,13.279L86.219,58.636z M94.631,62.264v-9.146C95.852,55.429,96.125,58.354,94.631,62.264z"/>
		</g>
		<g>
			<circle cx="86.199" cy="31.552" r="8.238"/>
		</g>
	</g>
	<g>
		<path d="M68.011,69.294H27.649c-2.563,0-4.649-2.087-4.649-4.649V27.649C23,25.085,25.086,23,27.649,23h40.361
			c2.563,0,4.649,2.085,4.649,4.649v36.995C72.658,67.207,70.574,69.294,68.011,69.294z M27.649,26.1c-0.855,0-1.55,0.695-1.55,1.55
			v36.995c0,0.854,0.695,1.55,1.55,1.55h40.361c0.854,0,1.55-0.695,1.55-1.55V27.649c0-0.855-0.696-1.55-1.55-1.55L27.649,26.1
			L27.649,26.1z"/>
	</g>
</g>
</svg>
